<?xml version="1.0" standalone="no"?>
<!DOCTYPE svg PUBLIC "-//W3C//DTD SVG 20010904//EN"
 "http://www.w3.org/TR/2001/REC-SVG-20010904/DTD/svg10.dtd">
<svg version="1.0" xmlns="http://www.w3.org/2000/svg"
 width="16.000000pt" height="16.000000pt" viewBox="0 0 16.000000 16.000000"
 preserveAspectRatio="xMidYMid meet">
<metadata>
Created by potrace 1.11, written by Peter Selinger 2001-2013
</metadata>
<g transform="translate(0.000000,16.000000) scale(0.001250,-0.001250)"
fill="#000000" stroke="none">
<path d="M6320 11293 c-718 -52 -1305 -210 -1915 -515 -214 -107 -477 -263
-620 -368 -174 -127 -216 -159 -265 -199 -30 -25 -65 -55 -79 -66 -88 -73
-252 -227 -355 -334 -39 -41 -84 -87 -99 -103 -15 -15 -25 -28 -21 -28 4 0 -5
-9 -20 -21 -14 -11 -26 -27 -26 -35 0 -8 -4 -12 -10 -9 -5 3 -12 -5 -16 -19
-4 -17 -11 -23 -22 -19 -11 5 -14 2 -9 -10 3 -8 0 -21 -8 -27 -7 -6 -18 -24
-25 -40 -7 -17 -18 -30 -25 -30 -8 0 -11 -8 -8 -20 5 -19 6 -19 24 3 10 12 18
16 19 10 0 -7 -4 -13 -10 -13 -5 0 -10 -5 -10 -11 0 -5 4 -7 10 -4 6 4 10 -9
10 -32 0 -22 5 -44 11 -50 8 -8 8 -16 0 -30 -10 -16 -11 -15 -8 7 1 17 -4 25
-17 28 -17 4 -18 -1 -13 -46 4 -39 3 -52 -9 -56 -8 -3 -14 -10 -14 -16 0 -18
16 -10 30 15 7 13 17 22 21 19 5 -3 -2 -17 -16 -32 -14 -15 -25 -30 -25 -34 0
-7 -17 -30 -45 -62 -6 -6 -18 -24 -28 -39 -10 -16 -23 -25 -29 -21 -8 5 -9 1
-5 -10 4 -10 3 -15 -3 -11 -13 8 -1 66 18 88 14 16 14 19 -4 33 -18 14 -18 15
6 10 14 -3 19 -3 13 0 -7 3 -13 21 -13 39 0 45 -33 67 -50 34 -7 -11 -14 -18
-17 -15 -3 3 4 17 15 31 18 23 22 24 35 10 18 -17 37 -20 37 -5 0 6 -4 10 -8
10 -5 0 -13 10 -18 21 -11 24 -13 23 -64 -41 -14 -17 -36 -42 -49 -55 -16 -17
-19 -25 -10 -25 10 -1 10 -3 -3 -10 -9 -6 -29 -30 -45 -55 -15 -25 -31 -45
-35 -45 -5 0 -8 -7 -8 -15 0 -7 -6 -18 -13 -22 -6 -4 -19 -21 -27 -38 -8 -16
-21 -34 -27 -38 -7 -4 -13 -12 -13 -17 0 -4 -22 -44 -48 -87 -49 -77 -120
-208 -193 -353 -210 -417 -364 -901 -444 -1396 -143 -879 -41 -1807 287 -2624
80 -198 198 -445 288 -600 132 -228 293 -467 311 -462 5 1 8 -1 7 -5 -5 -20
15 -54 28 -49 9 3 14 0 12 -7 -4 -22 21 -57 37 -51 11 5 13 2 9 -10 -3 -9 -2
-16 4 -16 16 0 22 28 8 39 -16 13 -22 146 -7 136 14 -8 14 50 1 76 -7 13 -7
19 0 19 5 0 10 -4 10 -8 0 -5 8 -17 19 -28 20 -22 45 -63 47 -79 1 -5 2 -16 3
-22 0 -7 7 -13 15 -13 17 0 31 -18 22 -27 -3 -3 -13 0 -22 8 -14 12 -16 11
-13 -6 2 -11 14 -24 26 -30 29 -13 31 -18 23 -95 -4 -36 -8 -55 -8 -42 -1 13
-6 20 -12 17 -6 -4 -8 -15 -5 -26 8 -24 -4 -25 -21 -2 -7 10 -15 15 -19 12 -3
-4 1 -13 9 -22 8 -8 12 -18 8 -21 -3 -4 2 -4 13 0 15 6 17 4 12 -10 -4 -10 -3
-15 3 -11 6 3 10 0 10 -7 0 -25 51 -77 68 -71 13 4 14 3 3 -5 -11 -8 -7 -17
20 -48 321 -359 650 -645 1019 -886 648 -424 1348 -675 2155 -774 172 -21 711
-30 911 -15 1185 87 2281 584 3120 1416 222 220 352 368 499 568 28 37 65 89
84 114 54 72 201 307 266 422 332 593 530 1216 612 1916 22 192 25 804 5 995
-49 459 -142 860 -294 1270 -84 226 -216 509 -315 678 -24 41 -43 75 -43 77 0
3 -117 193 -125 203 -1 2 -2 -9 -2 -23 0 -14 3 -28 8 -31 5 -3 9 -32 9 -65 0
-37 4 -59 11 -59 8 0 8 -4 0 -14 -8 -10 -9 -16 -1 -21 5 -3 10 -1 10 6 0 7 3
9 6 6 4 -4 2 -12 -3 -19 -18 -24 -7 -178 16 -231 13 -31 25 -46 32 -41 7 4 9
3 6 -3 -6 -9 33 -103 109 -270 61 -133 179 -470 228 -653 79 -289 131 -596
157 -913 15 -194 7 -705 -15 -887 -66 -551 -213 -1073 -431 -1525 -71 -148
-95 -202 -95 -214 0 -6 -4 -11 -9 -11 -12 0 -34 -56 -28 -72 3 -7 6 -3 6 10 1
12 6 22 12 22 5 0 7 -5 4 -10 -4 -6 -9 -70 -11 -143 -2 -73 -6 -143 -8 -157
-2 -14 -5 -29 -5 -35 -1 -5 -8 -2 -17 7 -12 12 -17 37 -18 92 -1 51 -5 76 -13
76 -19 0 -25 18 -13 40 6 11 9 20 6 20 -5 0 -106 -148 -106 -156 0 -3 -27 -42
-60 -86 -69 -93 -81 -97 -16 -5 47 66 149 228 193 305 80 143 164 315 157 321
-5 3 -151 5 -324 3 l-315 -4 -44 -76 c-102 -178 -375 -558 -409 -570 -25 -8
-10 22 51 96 34 43 89 115 122 160 64 87 245 372 245 385 0 4 -12 7 -27 7 -24
-1 -35 -12 -77 -83 -240 -401 -604 -813 -994 -1121 -98 -77 -322 -228 -459
-309 -838 -495 -1863 -670 -2843 -486 -98 18 -307 68 -375 89 -560 173 -997
401 -1433 750 -138 109 -391 349 -498 470 -168 191 -356 449 -467 643 -24 40
-32 47 -58 47 l-31 0 27 -47 c61 -106 237 -365 324 -476 60 -77 90 -122 84
-128 -21 -21 -314 384 -438 605 l-23 41 -326 5 c-188 3 -330 10 -335 15 -27
27 -183 426 -239 610 -148 481 -212 914 -212 1430 0 622 97 1140 323 1737 40
105 143 334 195 433 l47 90 340 3 c288 2 341 5 348 17 10 19 27 19 27 0 0 -10
10 -15 28 -15 24 0 38 14 99 103 553 790 1390 1369 2333 1615 193 51 384 85
640 114 153 17 628 17 790 0 632 -68 1201 -257 1735 -577 72 -43 221 -141 240
-157 5 -5 39 -30 75 -56 307 -221 662 -580 896 -908 84 -118 99 -134 124 -134
24 0 27 3 23 21 -4 16 -2 20 8 17 8 -3 13 -13 13 -22 -2 -15 30 -16 347 -16
392 0 357 -9 311 78 -12 23 -19 42 -15 42 5 0 1 6 -8 13 -20 15 -42 57 -35 65
3 3 6 0 6 -7 0 -9 4 -8 15 3 18 17 21 156 5 172 -13 13 12 78 25 67 12 -11 -4
16 -30 52 -12 17 -24 38 -28 48 -4 10 -11 15 -17 12 -6 -3 -7 1 -4 9 4 9 -1
18 -10 22 -9 3 -16 11 -16 16 0 6 -10 23 -22 38 -13 15 -31 38 -40 51 -248
346 -649 749 -1024 1031 -761 574 -1695 920 -2624 973 l-105 6 23 -19 c26 -24
28 -32 7 -32 -21 0 -19 -28 3 -33 16 -4 16 -5 0 -6 -22 -1 -24 -21 -3 -21 10
0 15 -10 15 -32 l0 -33 -59 3 c-36 2 -65 9 -72 18 -6 8 -18 14 -25 14 -8 0
-14 9 -14 20 0 11 3 19 8 19 26 -4 32 4 31 50 -2 48 -2 49 -36 56 -31 6 -344
4 -433 -2z m447 -55 c-3 -7 -5 -2 -5 12 0 14 2 19 5 13 2 -7 2 -19 0 -25z
m-477 -460 l0 -118 -25 0 c-53 0 -385 -52 -513 -81 -111 -24 -138 -27 -148
-17 -7 7 -31 63 -53 125 l-39 112 106 25 c131 31 368 72 522 89 154 18 150 21
150 -135z m922 116 c257 -35 520 -89 549 -113 19 -16 19 -18 -20 -126 -25 -70
-44 -110 -52 -109 -8 1 -81 15 -164 33 -154 31 -296 54 -420 66 -102 10 -105
15 -105 152 l0 113 50 0 c27 0 100 -7 162 -16z m-2398 -352 c15 -17 90 -222
83 -228 -1 -2 -75 -39 -164 -83 -89 -44 -224 -117 -299 -162 l-137 -83 -31 36
c-17 19 -55 65 -84 103 -43 56 -51 71 -40 81 31 30 268 166 448 256 107 54
198 98 201 98 3 0 13 -8 23 -18z m1836 -27 c0 -8 -9 -15 -20 -15 -11 0 -20 7
-20 15 0 8 9 15 20 15 11 0 20 -7 20 -15z m1984 -49 c227 -110 526 -288 526
-314 0 -16 -117 -172 -135 -178 -7 -3 -44 14 -81 37 -144 88 -244 143 -380
210 -78 38 -147 75 -154 83 -13 16 -12 21 32 144 19 51 35 82 44 82 8 0 75
-29 148 -64z m-2184 45 c0 -13 -38 -21 -100 -21 -162 -1 -553 -64 -793 -130
-66 -17 -109 -25 -113 -19 -3 6 -4 12 -2 14 11 11 331 87 458 109 265 46 550
71 550 47z m630 -6 c74 -9 200 -27 280 -41 144 -24 445 -96 457 -108 21 -21
-28 -15 -180 22 -262 63 -576 112 -727 112 -62 0 -100 8 -100 21 0 14 120 11
270 -6z m930 -216 c0 -5 -9 -9 -20 -9 -19 0 -26 11 -14 23 8 8 34 -3 34 -14z
m-2720 2 c0 -5 -7 -12 -16 -15 -22 -9 -24 -8 -24 9 0 8 9 15 20 15 11 0 20 -4
20 -9z m2955 -83 c92 -36 348 -163 470 -233 224 -129 513 -331 496 -348 -6 -6
-42 14 -98 55 -119 89 -277 193 -398 263 -107 62 -403 208 -497 245 -35 13
-58 28 -58 37 0 11 5 13 18 8 9 -4 40 -16 67 -27z m-3145 13 c0 -5 -37 -25
-82 -44 -271 -116 -565 -278 -746 -410 -39 -28 -57 -36 -65 -28 -6 6 -9 12 -6
14 19 17 206 137 290 188 182 108 551 287 597 289 6 0 12 -4 12 -9z m-1483
-585 l80 -105 -121 -123 c-67 -68 -170 -180 -230 -250 -60 -71 -112 -128 -116
-128 -9 0 -168 105 -191 126 -11 10 -19 22 -19 28 0 10 88 118 192 236 58 66
311 320 319 320 3 0 42 -47 86 -104z m6294 -93 c161 -164 359 -390 359 -410 0
-9 -181 -133 -194 -133 -2 0 -46 51 -97 112 -52 62 -161 181 -242 265 l-149
152 34 43 c19 24 51 64 72 91 20 26 41 47 45 47 4 0 81 -75 172 -167z m-5842
81 c-6 -7 -15 -11 -21 -8 -5 3 -4 12 3 20 6 7 15 11 21 8 5 -3 4 -12 -3 -20z
m5599 -399 c70 -72 170 -185 223 -251 140 -174 152 -191 139 -199 -14 -9 -10
-12 -90 95 -35 47 -66 87 -69 90 -3 3 -31 34 -61 70 -98 116 -231 254 -374
386 -58 55 -96 97 -91 103 8 14 150 -115 323 -294z m-5748 281 c0 -7 -11 -21
-25 -30 -43 -28 -272 -255 -374 -370 -86 -97 -217 -260 -264 -326 -8 -12 -20
-19 -26 -15 -35 21 353 468 598 689 75 67 91 77 91 52z m-1052 -206 c-7 -10
-14 -17 -17 -15 -4 4 18 35 25 35 2 0 -1 -9 -8 -20z m-208 -80 c0 -5 -4 -10
-10 -10 -5 0 -10 5 -10 10 0 6 5 10 10 10 6 0 10 -4 10 -10z m27 -62 c-3 -8
-6 -5 -6 6 -1 11 2 17 5 13 3 -3 4 -12 1 -19z m8084 -101 c-1 -12 -15 -9 -19
4 -3 6 1 10 8 8 6 -3 11 -8 11 -12z m-8113 -42 c-3 -3 -9 2 -12 12 -6 14 -5
15 5 6 7 -7 10 -15 7 -18z m-14 -11 c5 -14 4 -15 -9 -4 -17 14 -19 20 -6 20 5
0 12 -7 15 -16z m8233 -109 c-1 -1 -9 -6 -18 -13 -16 -12 -17 -9 -10 42 0 6 7
1 15 -10 8 -10 14 -19 13 -19z m23 -45 c12 -23 12 -24 -3 -11 -10 7 -17 20
-17 29 0 18 3 16 20 -18z m-143 -32 c-3 -8 -6 -5 -6 6 -1 11 2 17 5 13 3 -3 4
-12 1 -19z m127 -4 c3 -8 2 -12 -4 -9 -6 3 -10 10 -10 16 0 14 7 11 14 -7z
m-8082 -4561 c9 -10 28 -40 43 -68 50 -92 158 -260 247 -383 53 -74 85 -128
81 -135 -5 -7 -40 -43 -80 -81 -46 -43 -78 -66 -87 -63 -48 19 -453 633 -432
654 7 7 198 92 207 93 3 0 13 -8 21 -17z m7731 -66 c53 -23 106 -50 117 -60
l21 -18 -27 -47 c-14 -26 -38 -67 -51 -92 -41 -73 -269 -411 -306 -454 -31
-36 -35 -38 -54 -25 -37 26 -173 156 -173 165 0 5 23 41 51 79 78 106 180 259
239 360 71 121 80 135 84 135 2 0 47 -19 99 -43z m331 -363 c3 -8 2 -12 -4 -9
-6 3 -10 10 -10 16 0 14 7 11 14 -7z m-5 -51 c1 10 6 15 11 12 8 -5 7 -11 -1
-21 -15 -18 -29 -9 -28 19 1 20 2 20 9 -3 6 -18 8 -20 9 -7z m-68 -104 c19
-19 19 -19 -1 -41 -48 -52 -54 -58 -59 -52 -3 3 1 11 10 17 25 19 37 50 28 72
-4 11 -7 29 -7 40 0 18 1 18 5 2 3 -11 13 -27 24 -38z m-8131 -30 c0 -6 -4 -7
-10 -4 -5 3 -10 11 -10 16 0 6 5 7 10 4 6 -3 10 -11 10 -16z m43 -106 c7 -9 5
-13 -7 -13 -11 0 -16 8 -15 28 0 15 3 21 6 12 3 -8 10 -21 16 -27z m7819 15
c-7 -7 -12 -8 -12 -2 0 14 12 26 19 19 2 -3 -1 -11 -7 -17z m-12 -22 c0 -3 -4
-8 -10 -11 -5 -3 -10 -1 -10 4 0 6 5 11 10 11 6 0 10 -2 10 -4z m-788 -38
c-15 -15 -26 -4 -18 18 5 13 9 15 18 6 9 -9 9 -15 0 -24z m-6152 1 c0 -5 -7
-9 -15 -9 -15 0 -20 12 -9 23 8 8 24 -1 24 -14z m6901 -6 c-5 -10 -17 -27 -26
-38 -16 -19 -17 -19 -3 5 26 46 29 50 34 50 3 0 0 -8 -5 -17z m-7810 -60 c13
-16 12 -17 -3 -4 -17 13 -22 21 -14 21 2 0 10 -8 17 -17z m7750 -21 c-5 -9
-19 -26 -32 -37 -19 -16 -18 -13 5 18 30 39 43 49 27 19z m-821 -43 c0 -12
-132 -138 -244 -234 -110 -93 -292 -229 -411 -307 -124 -81 -142 -91 -149 -79
-4 5 47 44 111 86 215 141 414 298 613 483 66 62 80 71 80 51z m-6902 -24 c-3
-3 -9 2 -12 12 -6 14 -5 15 5 6 7 -7 10 -15 7 -18z m1089 -45 c59 -57 159
-145 244 -215 70 -57 228 -172 339 -245 123 -81 146 -100 117 -100 -20 0 -271
168 -402 270 -170 131 -395 332 -395 353 0 20 33 -2 97 -63z m6504 -48 c-5 -9
-19 -26 -32 -37 -17 -15 -15 -10 7 17 32 41 40 48 25 20z m-7431 -46 c0 -11
-19 -15 -25 -6 -3 5 1 10 9 10 9 0 16 -2 16 -4z m938 -164 c140 -116 250 -200
354 -270 42 -28 79 -56 83 -61 5 -9 -58 -136 -96 -192 l-17 -24 -88 60 c-116
78 -298 220 -432 336 l-106 93 84 78 c46 43 88 78 92 78 5 0 61 -44 126 -98z
m5860 -22 c45 -41 82 -80 82 -86 0 -31 -508 -431 -584 -460 -8 -3 -22 0 -29 8
-12 11 -117 204 -117 213 0 2 21 19 48 36 101 70 311 232 397 307 73 64 93 77
106 68 8 -6 52 -45 97 -86z m392 -34 c0 -2 -8 -10 -17 -17 -16 -13 -17 -12 -4
4 13 16 21 21 21 13z m-90 -90 c0 -3 -4 -8 -10 -11 -5 -3 -10 -1 -10 4 0 6 5
11 10 11 6 0 10 -2 10 -4z m-50 -40 c0 -2 -8 -10 -17 -17 -16 -13 -17 -12 -4
4 13 16 21 21 21 13z m-100 -89 c0 -2 -10 -12 -22 -23 l-23 -19 19 23 c18 21
26 27 26 19z m-70 -67 c0 -5 -5 -10 -11 -10 -5 0 -7 5 -4 10 3 6 8 10 11 10 2
0 4 -4 4 -10z m-1093 -52 c-6 -4 -16 -3 -22 3 -6 6 -5 13 5 19 9 6 17 5 22 -3
4 -6 2 -15 -5 -19z m1048 12 c-10 -11 -21 -18 -23 -15 -3 3 3 12 14 20 27 20
30 18 9 -5z m-5027 -8 c2 -7 -3 -12 -12 -12 -9 0 -16 7 -16 16 0 17 22 14 28
-4z m4912 -83 c-31 -26 -83 -61 -70 -46 11 12 95 77 100 77 3 0 -11 -14 -30
-31z m-4663 -30 c232 -107 594 -229 802 -270 41 -8 61 -16 61 -26 0 -17 -6
-16 -180 27 -283 70 -804 269 -785 300 8 13 1 15 102 -31z m3563 31 c0 -18
-314 -151 -515 -218 -201 -67 -435 -125 -449 -111 -5 5 -8 10 -5 12 2 2 65 19
139 37 237 58 529 160 750 264 59 28 80 32 80 16z m985 -90 c-3 -5 -12 -10
-18 -10 -7 0 -6 4 3 10 19 12 23 12 15 0z m-45 -23 c0 -2 -10 -12 -22 -23
l-23 -19 19 23 c18 21 26 27 26 19z m-4432 -142 c118 -48 374 -134 459 -155
29 -6 63 -20 76 -31 l24 -18 -19 -113 c-11 -62 -21 -114 -22 -116 -5 -4 -150
36 -286 80 -170 55 -417 152 -441 174 -18 16 -18 19 25 98 24 45 49 91 55 104
6 12 14 22 16 22 2 0 53 -20 113 -45z m3374 8 c8 -10 38 -62 67 -116 51 -97
51 -97 29 -106 -13 -5 -70 -28 -127 -51 -140 -56 -366 -132 -478 -161 -82 -21
-95 -22 -107 -9 -16 16 -58 231 -47 242 3 3 50 18 104 32 114 31 342 110 442
154 83 36 97 38 117 15z m883 7 c-3 -6 -21 -17 -38 -26 -36 -19 -31 -9 10 17
34 21 36 22 28 9z m-3265 -120 c0 -5 -9 -10 -20 -10 -11 0 -20 5 -20 10 0 6 9
10 20 10 11 0 20 -4 20 -10z m1370 0 c0 -5 -7 -10 -15 -10 -8 0 -15 5 -15 10
0 6 7 10 15 10 8 0 15 -4 15 -10z m-200 -24 c0 -18 -29 -23 -231 -37 -251 -17
-751 0 -778 26 -15 15 24 17 142 7 231 -21 694 -12 860 17 4 0 7 -5 7 -13z
m1585 -146 c-3 -5 -12 -10 -18 -10 -7 0 -6 4 3 10 19 12 23 12 15 0z m-40 -20
c-3 -5 -12 -10 -18 -10 -7 0 -6 4 3 10 19 12 23 12 15 0z m-2205 -24 c85 -2
223 -1 305 3 129 6 152 5 166 -8 23 -22 56 -230 39 -241 -22 -14 -357 -23
-545 -16 -244 10 -240 7 -210 171 8 44 14 86 15 93 0 8 12 11 38 8 20 -3 107
-7 192 -10z m2036 -51 c-11 -8 -25 -15 -30 -15 -6 1 0 7 14 15 32 19 40 18 16
0z m-739 -251 c-3 -3 -12 -4 -19 -1 -8 3 -5 6 6 6 11 1 17 -2 13 -5z m-90 -20
c-3 -3 -12 -4 -19 -1 -8 3 -5 6 6 6 11 1 17 -2 13 -5z m-140 -30 c-3 -3 -12
-4 -19 -1 -8 3 -5 6 6 6 11 1 17 -2 13 -5z m-120 -20 c-3 -3 -12 -4 -19 -1 -8
3 -5 6 6 6 11 1 17 -2 13 -5z m-44 -11 c-7 -2 -19 -2 -25 0 -7 3 -2 5 12 5 14
0 19 -2 13 -5z m-66 -9 c-3 -3 -12 -4 -19 -1 -8 3 -5 6 6 6 11 1 17 -2 13 -5z
m-48 -8 c-10 -9 -79 -14 -74 -5 4 5 22 9 42 9 20 0 34 -2 32 -4z m-116 -13
c-7 -2 -19 -2 -25 0 -7 3 -2 5 12 5 14 0 19 -2 13 -5z m-80 -10 c-7 -2 -21 -2
-30 0 -10 3 -4 5 12 5 17 0 24 -2 18 -5z m-105 -10 c-47 -4 -48 -5 -48 -39 0
-22 -5 -34 -14 -34 -7 0 -16 -10 -18 -23 -4 -20 -1 -23 21 -20 17 2 12 -2 -14
-12 -39 -14 -39 -14 -7 -11 17 1 32 -1 32 -6 0 -4 10 -9 23 -9 l22 -2 -23 -4
c-12 -2 -20 -8 -17 -12 2 -5 -34 -9 -80 -10 -85 -2 -85 -2 -85 23 0 19 5 26
20 26 22 0 24 11 13 73 -5 31 -9 38 -24 34 -11 -3 -17 -1 -14 4 3 4 -32 10
-77 12 -61 2 -51 3 34 3 65 0 121 4 125 7 3 4 45 6 92 5 53 -1 68 -3 39 -5z
m-202 -70 c-10 -10 -19 5 -10 18 6 11 8 11 12 0 2 -7 1 -15 -2 -18z m222 -70
c-10 -2 -26 -2 -35 0 -10 3 -2 5 17 5 19 0 27 -2 18 -5z"/>
<path d="M6170 10844 c-14 -2 -79 -11 -145 -20 -142 -19 -406 -71 -417 -82 -8
-8 18 -99 30 -106 4 -2 57 7 117 20 111 23 359 61 428 66 l37 2 0 63 c0 44 -4
63 -12 62 -7 -1 -24 -3 -38 -5z"/>
<path d="M7072 10778 l3 -63 130 -16 c112 -14 339 -55 418 -75 23 -5 27 -1 46
51 12 31 19 60 16 64 -5 9 -13 11 -205 47 -146 27 -337 54 -382 54 l-29 0 3
-62z"/>
<path d="M4638 10400 c-184 -92 -418 -227 -418 -240 0 -3 16 -23 35 -45 39
-46 14 -52 190 50 55 31 162 89 238 127 124 63 137 72 131 91 -9 32 -33 87
-36 87 -2 0 -65 -32 -140 -70z"/>
<path d="M8501 10389 c-11 -35 -20 -63 -18 -64 1 -1 66 -35 144 -74 78 -39
189 -101 248 -136 59 -36 110 -65 113 -65 14 1 83 100 77 110 -14 22 -462 267
-521 284 -19 6 -24 0 -43 -55z"/>
<path d="M3395 9498 c-135 -140 -285 -312 -285 -326 0 -4 21 -20 46 -36 l46
-29 26 34 c50 64 176 204 276 307 56 57 103 105 105 107 6 7 -54 85 -66 85 -6
0 -73 -64 -148 -142z"/>
<path d="M9720 9569 c-22 -28 -40 -54 -40 -58 0 -3 36 -42 81 -86 44 -44 130
-137 191 -207 61 -71 113 -128 116 -128 13 0 112 66 112 75 0 22 -336 397
-391 436 l-28 20 -41 -52z"/>
<path d="M2713 4158 c-29 -11 -53 -25 -53 -31 0 -22 250 -416 313 -491 l24
-30 51 48 51 48 -40 57 c-53 73 -196 290 -240 364 -18 31 -38 57 -44 56 -5 0
-34 -10 -62 -21z"/>
<path d="M10425 4068 c-51 -86 -200 -312 -254 -384 l-31 -41 37 -37 c20 -20
42 -35 47 -33 29 9 346 490 346 524 0 9 -79 53 -95 53 -1 0 -24 -37 -50 -82z"/>
<path d="M3633 3002 l-53 -47 78 -66 c160 -136 392 -309 416 -309 10 0 66 98
66 115 0 2 -44 35 -97 74 -54 38 -155 117 -225 175 -71 58 -129 106 -130 106
-2 0 -27 -22 -55 -48z"/>
<path d="M9450 2929 c-58 -49 -164 -132 -237 -185 l-132 -96 25 -49 c23 -46
26 -49 46 -38 76 41 434 321 477 373 13 16 11 21 -25 51 -21 19 -41 34 -44 34
-3 0 -52 -40 -110 -90z"/>
<path d="M4901 2256 c-22 -28 -52 -99 -44 -106 27 -27 568 -211 578 -197 4 5
25 121 22 123 -2 2 -61 21 -132 43 -72 22 -194 65 -272 94 -102 39 -145 51
-152 43z"/>
<path d="M8280 2234 c-73 -33 -330 -124 -424 -150 l-97 -28 6 -51 c4 -27 10
-54 14 -58 12 -12 295 77 485 153 127 50 120 42 91 100 -14 28 -29 50 -33 50
-4 -1 -23 -8 -42 -16z"/>
<path d="M6305 1865 c-4 -31 -5 -58 -2 -61 10 -10 360 -17 490 -9 l127 7 0 28
c0 15 -3 42 -6 59 l-6 31 -299 0 -298 0 -6 -55z"/>
<path d="M6855 1390 c-14 -7 -8 -8 20 -3 22 3 42 7 44 9 9 8 -45 2 -64 -6z"/>
<path d="M5675 9730 c-57 -27 -62 -35 -23 -31 26 3 29 -24 26 -269 -3 -222 -3
-225 -25 -235 -42 -18 -24 -25 67 -25 53 0 90 4 90 10 0 6 -9 10 -20 10 -10 0
-24 9 -30 19 -6 12 -10 121 -10 285 0 146 -3 266 -7 266 -5 -1 -35 -14 -68
-30z"/>
<path d="M7663 9670 c-12 -38 -17 -70 -13 -70 8 0 120 125 120 134 0 3 -20 6
-43 6 l-44 0 -20 -70z"/>
<path d="M5100 9721 c0 -5 12 -11 27 -13 49 -6 54 -30 51 -276 -3 -239 -4
-241 -55 -242 -13 0 -23 -4 -23 -10 0 -6 78 -10 214 -10 l214 0 21 62 c12 34
21 66 21 70 0 18 -17 5 -39 -32 -36 -57 -73 -71 -178 -68 l-88 3 -3 118 c-3
133 -14 120 103 117 73 -1 95 -14 95 -51 0 -10 5 -21 10 -24 6 -4 10 30 10 94
0 61 -4 101 -10 101 -5 0 -10 -11 -10 -24 0 -45 -23 -56 -116 -56 l-84 0 0
108 0 107 110 -3 c99 -3 111 -5 125 -25 8 -12 15 -29 15 -39 0 -9 5 -20 10
-23 6 -4 10 18 10 59 l0 66 -215 0 c-126 0 -215 -4 -215 -9z"/>
<path d="M6050 9721 c0 -5 14 -11 30 -15 47 -9 51 -35 48 -278 -3 -234 -4
-237 -55 -238 -13 0 -23 -4 -23 -10 0 -6 38 -10 95 -10 57 0 95 4 95 10 0 6
-11 10 -24 10 -44 0 -47 15 -44 226 l3 199 18 -40 c85 -192 185 -399 194 -402
6 -2 17 13 26 34 28 70 180 398 189 408 5 6 8 -75 6 -198 -3 -223 -4 -226 -55
-227 -13 0 -23 -4 -23 -10 0 -6 45 -10 115 -10 70 0 115 4 115 10 0 6 -10 10
-23 10 -45 0 -47 10 -47 260 0 254 1 260 52 260 15 0 28 5 28 10 0 6 -34 10
-82 10 l-83 -1 -94 -209 c-52 -116 -97 -210 -101 -210 -4 0 -51 95 -105 210
l-98 210 -79 0 c-43 0 -78 -4 -78 -9z"/>
<path d="M6910 9538 c-72 -37 -109 -126 -94 -225 8 -53 38 -100 84 -131 29
-20 44 -23 90 -19 49 4 58 8 91 46 36 41 57 87 43 100 -4 3 -9 -1 -12 -9 -3
-8 -18 -27 -33 -42 -20 -21 -37 -28 -66 -28 -72 0 -122 48 -137 133 l-7 37
132 0 132 0 -6 41 c-9 65 -72 119 -139 119 -19 0 -54 -10 -78 -22z m89 -23
c30 -15 41 -33 41 -66 0 -17 -8 -19 -84 -19 l-83 0 5 25 c5 28 55 75 78 75 8
0 28 -7 43 -15z"/>
<path d="M7265 9550 c-65 -26 -90 -117 -47 -163 13 -14 46 -37 75 -52 29 -15
62 -37 75 -48 49 -44 8 -113 -60 -100 -32 6 -88 59 -88 84 0 10 -4 21 -10 24
-6 4 -10 -19 -10 -62 l0 -68 80 -3 c116 -4 170 30 170 109 0 49 -29 83 -104
120 -78 40 -96 56 -96 89 0 36 17 50 60 50 44 -1 66 -17 85 -64 8 -20 17 -36
20 -36 3 0 5 30 5 66 0 54 -2 64 -13 55 -9 -7 -24 -8 -48 -1 -40 12 -67 12
-94 0z"/>
<path d="M7625 9546 c-96 -43 -143 -179 -96 -281 45 -98 144 -132 241 -82 109
54 134 249 44 329 -50 44 -132 59 -189 34z m103 -32 c77 -54 90 -255 20 -307
-23 -17 -34 -19 -65 -11 -32 8 -42 17 -65 63 -46 91 -36 228 19 260 26 15 65
13 91 -5z"/>
<path d="M7963 9537 c-57 -23 -67 -37 -29 -37 13 0 27 -7 30 -16 10 -27 7
-254 -4 -275 -6 -10 -20 -19 -30 -19 -11 0 -20 -4 -20 -10 0 -6 39 -10 97 -10
58 0 93 4 88 9 -6 5 -19 11 -30 13 -19 3 -20 11 -20 137 0 131 0 134 25 152
37 27 72 32 95 15 18 -13 20 -28 23 -146 4 -137 -2 -160 -39 -160 -11 0 -19
-4 -19 -10 0 -6 37 -10 90 -10 91 0 109 7 68 25 -22 10 -23 17 -28 150 -5 148
-12 173 -55 201 -33 22 -79 12 -127 -27 l-38 -30 0 36 c0 41 -5 41 -77 12z"/>
<path d="M2710 9370 c8 -5 20 -10 25 -10 6 0 3 5 -5 10 -8 5 -19 10 -25 10 -5
0 -3 -5 5 -10z"/>
<path d="M2770 9195 c-7 -9 -11 -17 -9 -20 3 -2 10 5 17 15 14 24 10 26 -8 5z"/>
<path d="M2730 9159 c0 -5 5 -7 10 -4 6 3 10 8 10 11 0 2 -4 4 -10 4 -5 0 -10
-5 -10 -11z"/>
<path d="M2705 9130 c-3 -5 -1 -10 4 -10 6 0 11 5 11 10 0 6 -2 10 -4 10 -3 0
-8 -4 -11 -10z"/>
<path d="M10776 8994 c-8 -21 -8 -21 7 -27 7 -3 12 4 12 19 0 27 -10 32 -19 8z"/>
<path d="M10760 8770 c0 -5 10 -10 23 -10 18 0 19 2 7 10 -19 13 -30 13 -30 0z"/>
<path d="M10800 8712 c0 -5 7 -15 15 -22 8 -7 15 -9 15 -6 0 4 -7 14 -15 22
-8 9 -15 11 -15 6z"/>
<path d="M10831 8654 c0 -11 3 -14 6 -6 3 7 2 16 -1 19 -3 4 -6 -2 -5 -13z"/>
<path d="M6184 8250 l-46 -69 -52 54 c-34 36 -60 55 -75 55 -78 0 -361 -307
-544 -590 -102 -158 -197 -334 -398 -735 -144 -288 -205 -400 -216 -398 -9 1
-58 30 -109 64 l-92 64 -4 125 c-5 144 -22 204 -89 307 -90 137 -262 253 -454
305 -103 28 -349 30 -462 5 -321 -73 -582 -277 -738 -579 -59 -113 -87 -188
-118 -318 -55 -228 -56 -408 -1 -638 13 -57 24 -112 24 -123 0 -10 4 -19 9
-19 5 0 16 -21 25 -46 23 -69 78 -162 160 -271 119 -160 241 -259 386 -317 64
-25 93 -30 190 -34 97 -4 129 -1 195 17 125 34 334 144 420 221 32 28 65 43
65 29 0 -14 -88 -99 -103 -99 -6 0 6 15 26 34 20 18 37 37 37 41 0 4 -32 -22
-70 -56 -39 -35 -94 -81 -122 -102 -50 -36 -78 -67 -62 -67 4 0 -1 -7 -12 -15
-10 -8 -26 -14 -34 -14 -11 0 -10 3 4 14 30 23 12 18 -59 -15 -121 -57 -151
-63 -285 -64 -84 0 -145 5 -185 16 -209 57 -410 222 -505 416 -22 46 -47 112
-54 146 -7 34 -18 71 -25 81 -16 27 -4 -105 14 -155 8 -19 16 -48 20 -65 11
-51 111 -188 198 -271 122 -118 261 -183 456 -214 282 -46 613 136 902 493 45
56 103 127 128 157 44 53 30 53 -16 0 -12 -14 -22 -20 -23 -15 0 6 20 31 45
55 25 24 45 38 45 31 0 -15 53 52 90 114 13 22 38 58 56 80 17 22 73 105 124
185 51 80 93 146 94 147 1 1 33 -9 72 -22 38 -14 81 -25 96 -25 15 0 39 -5 55
-11 30 -12 32 -13 173 -32 52 -7 94 -17 93 -22 -26 -163 -38 -535 -24 -735 29
-393 90 -635 161 -635 31 0 31 9 -4 140 -30 109 -46 253 -44 385 l1 85 7 -85
c17 -212 65 -440 92 -440 9 0 3 49 -12 105 -35 126 -44 600 -16 890 24 249 38
335 57 335 6 0 17 7 26 15 8 8 19 12 25 9 12 -8 19 -5 178 74 158 79 175 91
165 123 -10 29 -207 229 -226 229 -8 0 -25 -9 -39 -20 -14 -11 -30 -20 -37
-20 -7 0 9 61 41 158 171 505 434 1023 688 1353 40 52 57 81 52 93 -4 9 -54
48 -112 86 -84 56 -113 70 -143 70 -37 0 -41 -4 -85 -70z m-314 -594 c-78
-170 -183 -459 -250 -691 -26 -91 -99 -384 -115 -461 -12 -61 -32 -69 -179
-69 -118 0 -226 16 -226 33 0 3 20 37 44 76 64 105 238 407 361 626 126 225
384 595 402 576 2 -2 -15 -42 -37 -90z m-1855 -472 c83 -17 139 -44 205 -99
49 -41 121 -138 140 -189 12 -32 18 -31 -80 -6 -67 18 -187 15 -245 -5 -276
-95 -357 -450 -135 -590 68 -43 141 -58 264 -53 140 5 181 24 295 138 44 44
82 80 85 80 3 0 44 -29 91 -64 47 -36 90 -66 97 -68 13 -5 -140 -254 -255
-416 -217 -305 -433 -512 -642 -617 -117 -59 -198 -79 -295 -72 -92 5 -165 33
-265 97 -131 86 -183 151 -243 305 -100 257 -110 542 -28 827 51 175 186 439
254 495 16 14 21 23 13 23 -17 0 -68 -55 -77 -83 -4 -14 -9 -16 -17 -8 -8 8
-4 18 12 35 14 15 20 30 16 37 -5 8 -4 10 4 5 7 -4 18 4 28 22 9 16 26 35 36
42 18 11 19 10 14 -9 -7 -29 0 -27 48 18 24 22 67 52 96 67 29 14 69 37 89 50
33 21 148 48 245 57 63 5 173 -3 250 -19z m-842 -271 c-10 -15 -18 -39 -18
-52 0 -16 -8 -29 -24 -37 -31 -16 -60 -61 -54 -85 6 -20 -25 -89 -39 -89 -12
0 -9 14 7 36 8 10 14 26 14 34 0 32 -27 -22 -58 -115 -26 -77 -29 -98 -20
-114 7 -10 9 -27 5 -37 -5 -13 -9 -15 -15 -6 -16 26 -44 -25 -47 -86 -1 -31
-8 -93 -14 -137 -14 -97 -7 -293 14 -390 9 -38 32 -105 52 -148 20 -43 34 -81
30 -84 -10 -10 -73 137 -96 222 -85 324 -17 723 171 995 55 80 138 164 92 93z
m971 -178 c-4 -8 -12 -15 -20 -15 -8 0 -11 6 -8 15 4 8 12 15 20 15 8 0 11 -6
8 -15z m47 -51 c70 -20 199 -93 199 -112 0 -19 -52 -101 -82 -130 -67 -62
-206 -84 -273 -42 -57 35 -85 79 -85 135 0 40 6 55 37 93 58 71 106 85 204 56z
m133 -2 c27 -13 34 -21 23 -25 -13 -5 -77 26 -77 38 0 9 16 5 54 -13z m345
-261 c10 -6 10 -10 1 -16 -7 -4 -19 0 -28 9 -14 13 -14 16 -2 16 8 0 21 -4 29
-9z m326 -201 c3 -6 -1 -7 -9 -4 -18 7 -21 14 -7 14 6 0 13 -4 16 -10z m585
-394 c0 -8 -4 -18 -10 -21 -5 -3 -10 3 -10 14 0 12 5 21 10 21 6 0 10 -6 10
-14z m-1126 -281 c-10 -16 -20 -23 -22 -16 -4 12 28 55 35 47 3 -2 -3 -17 -13
-31z m-73 -78 c-29 -30 -39 -12 -10 19 14 15 25 20 27 14 3 -7 -5 -21 -17 -33z
m1146 -99 c-2 -13 -4 -3 -4 22 0 25 2 35 4 23 2 -13 2 -33 0 -45z"/>
<path d="M6552 8025 c-19 -24 -90 -229 -172 -495 -23 -74 -45 -146 -50 -160
-16 -44 -159 -549 -200 -705 -83 -319 -122 -594 -121 -839 1 -174 25 -272 86
-344 39 -46 75 -62 141 -62 104 0 176 65 249 224 19 42 36 76 39 76 2 0 20
-33 39 -72 22 -44 60 -99 97 -137 l60 -64 68 0 c58 0 77 5 147 40 145 74 273
189 322 293 16 35 16 35 24 10 4 -14 14 -56 23 -93 19 -83 42 -116 104 -154
39 -24 53 -28 82 -22 19 4 38 5 42 3 4 -3 32 11 62 30 43 27 64 51 102 115 26
44 52 77 56 75 4 -3 8 -20 8 -38 0 -49 19 -96 59 -143 37 -45 77 -57 100 -29
6 8 25 19 41 26 27 11 84 94 119 175 42 96 155 481 145 496 -13 22 -28 7 -91
-96 -7 -11 -18 -31 -24 -45 -109 -229 -168 -340 -179 -340 -16 0 20 186 75
385 18 66 47 176 65 245 18 69 59 199 90 290 64 185 64 187 0 236 -87 65 -118
58 -164 -39 -60 -126 -169 -499 -196 -672 -9 -55 -26 -96 -82 -201 -39 -73
-96 -167 -127 -210 -104 -144 -116 -134 -115 89 1 127 6 182 23 257 74 324
217 609 393 782 54 53 78 84 78 100 0 36 -47 123 -74 138 -82 43 -298 -194
-449 -495 -96 -189 -151 -389 -163 -589 -8 -128 -29 -170 -139 -281 -94 -95
-177 -148 -269 -172 -60 -16 -69 -16 -94 -3 -70 39 -106 212 -84 408 36 317
210 761 351 896 27 26 31 27 37 12 19 -51 -17 -257 -73 -411 -44 -123 -44
-126 40 -161 39 -17 47 -31 22 -40 -17 -7 -21 -44 -5 -44 6 0 16 11 22 25 8
18 19 25 38 25 32 0 46 19 78 100 46 118 56 179 55 320 -1 197 -44 340 -120
400 -24 19 -37 21 -82 17 -91 -10 -186 -92 -296 -257 -75 -113 -122 -209 -175
-358 -63 -178 -82 -295 -85 -526 l-3 -198 -116 -109 c-64 -60 -120 -109 -125
-109 -29 0 -44 213 -26 379 26 252 180 906 294 1255 82 250 199 642 207 698 8
49 -8 82 -51 103 -52 24 -110 20 -133 -10z"/>
<path d="M8030 7504 c-74 -41 -161 -83 -192 -95 -95 -35 -86 -52 46 -86 49
-12 75 -13 151 -4 163 19 297 77 331 143 16 31 16 33 -6 48 -31 20 -161 70
-180 69 -8 -1 -76 -34 -150 -75z"/>
<path d="M9898 7184 c-13 -12 -9 -144 6 -215 8 -37 24 -85 35 -107 20 -40 20
-40 1 -148 -25 -145 -42 -223 -89 -411 -37 -142 -50 -177 -135 -347 -53 -104
-101 -194 -107 -200 -20 -19 -3 109 35 254 116 449 136 519 212 733 40 112 39
120 -33 170 -56 39 -95 44 -121 17 -48 -52 -165 -410 -220 -678 -24 -115 -37
-155 -76 -227 -117 -220 -206 -345 -238 -332 -24 9 -32 79 -25 216 17 355 198
788 418 1000 56 55 79 84 79 102 0 39 -47 128 -74 140 -100 46 -367 -282 -504
-618 -83 -202 -117 -404 -109 -640 4 -132 15 -204 41 -264 12 -27 -17 -30
-234 -29 -213 0 -319 14 -367 45 l-24 16 35 42 c123 143 262 349 341 506 108
215 280 633 314 766 42 158 26 196 -85 203 -77 5 -114 -13 -114 -56 0 -32 -11
-49 -104 -162 -146 -176 -313 -334 -436 -413 -30 -19 -72 -48 -93 -65 -21 -17
-43 -33 -50 -36 -9 -3 -8 -7 2 -14 9 -7 33 -2 74 14 67 27 91 30 65 10 -26
-19 -23 -39 5 -30 56 17 206 116 317 209 36 30 66 51 68 46 10 -30 -262 -604
-356 -751 -27 -41 -78 -112 -115 -158 -56 -69 -67 -89 -67 -120 0 -78 93 -147
223 -163 155 -20 461 10 624 62 27 9 38 6 70 -14 30 -19 45 -22 73 -16 19 4
38 5 42 3 4 -3 32 11 62 30 43 28 64 51 103 115 26 44 51 80 56 81 4 0 7 -19
8 -42 1 -57 17 -96 60 -146 38 -44 76 -55 98 -28 6 8 25 19 40 26 36 15 93
104 136 214 18 45 36 80 42 79 21 -4 87 177 239 665 21 67 42 122 46 122 4 0
30 -17 58 -37 38 -28 50 -43 47 -58 -3 -11 -21 -83 -40 -160 -61 -241 -87
-443 -87 -679 0 -131 2 -146 25 -192 31 -62 54 -76 122 -75 72 0 111 31 148
114 15 34 38 85 50 112 29 65 69 169 85 220 7 22 16 49 21 60 16 41 20 64 10
69 -12 8 -81 -54 -81 -73 0 -8 -3 -11 -6 -8 -6 5 -84 -116 -84 -129 0 -2 -24
-41 -52 -86 -51 -80 -53 -82 -56 -52 -7 75 92 572 147 734 22 63 41 124 43
135 6 29 -46 101 -92 127 -70 41 -145 193 -160 330 -5 44 -7 85 -4 90 11 18
-17 75 -44 88 -30 14 -233 26 -244 14z"/>
<path d="M6220 5039 c-107 -62 -120 -232 -22 -307 30 -23 45 -27 98 -27 67 0
102 17 133 65 14 22 11 21 -21 -7 -47 -40 -93 -50 -141 -29 -53 22 -77 67 -77
144 0 106 41 162 120 162 50 0 79 -18 103 -65 l16 -30 1 59 c0 51 -2 57 -15
46 -12 -10 -21 -10 -41 -1 -40 18 -115 13 -154 -10z"/>
<path d="M6590 5048 c0 -5 6 -8 14 -8 22 0 26 -24 26 -159 0 -128 -6 -152 -40
-164 -8 -3 46 -6 121 -6 l136 -1 12 41 c7 23 10 44 7 47 -3 3 -6 0 -6 -7 0 -6
-11 -23 -25 -36 -21 -22 -33 -25 -90 -25 -36 0 -66 4 -66 10 -1 6 -1 17 -1 25
0 8 0 38 1 65 l1 50 48 0 c50 0 66 -6 75 -30 3 -8 5 10 6 40 0 43 -2 50 -9 32
-9 -21 -15 -23 -67 -20 l-58 3 0 55 c-1 80 -1 80 66 80 34 0 63 -5 69 -12 6
-7 18 -22 26 -33 15 -19 15 -18 10 14 -4 19 -7 36 -9 37 -6 6 -247 8 -247 2z"/>
<path d="M7301 5053 c-36 -4 -41 -6 -27 -16 14 -10 16 -30 14 -125 l-3 -113
-100 125 -100 125 -50 -1 c-27 0 -40 -3 -28 -5 40 -8 44 -24 41 -174 l-3 -143
-25 -7 c-16 -4 -1 -7 40 -7 36 0 56 3 45 5 -11 3 -23 10 -27 17 -10 15 -10
236 0 236 4 0 57 -61 117 -136 l110 -135 5 165 c5 150 7 167 25 180 11 9 18
15 15 14 -3 -1 -25 -3 -49 -5z"/>
<path d="M7590 4908 c-35 -84 -74 -163 -87 -175 l-22 -23 57 1 c44 0 52 2 35
9 -27 11 -29 30 -8 70 15 29 18 30 84 30 68 0 69 0 80 -31 16 -45 14 -67 -6
-72 -10 -3 16 -5 57 -6 66 -1 72 1 50 12 -19 9 -41 49 -94 175 -38 89 -72 162
-76 162 -3 0 -35 -69 -70 -152z m110 -55 c0 -9 -17 -13 -55 -13 -30 0 -55 2
-55 5 0 2 12 35 27 71 l28 67 27 -59 c15 -32 27 -65 28 -71z"/>
<path d="M9825 5024 c-9 -22 -33 -77 -52 -124 -53 -128 -81 -178 -100 -183
-10 -3 9 -5 42 -5 45 -1 54 1 38 8 -27 11 -27 9 -7 60 l17 41 69 -3 70 -3 16
-39 c14 -36 14 -40 -3 -52 -17 -12 -10 -14 51 -13 38 1 61 3 51 6 -21 5 -41
44 -107 205 -28 68 -55 127 -60 132 -5 5 -16 -8 -25 -30z m65 -180 c0 -2 -25
-4 -56 -4 -54 0 -56 1 -50 23 3 13 15 45 27 72 l21 48 29 -67 c16 -38 29 -70
29 -72z"/>
<path d="M7992 5044 c26 -8 29 -33 26 -179 -3 -127 -4 -130 -28 -142 -22 -11
-11 -13 82 -13 140 0 186 19 225 93 20 40 19 130 -4 169 -37 64 -61 73 -196
75 -67 1 -114 -1 -105 -3z m186 -24 c34 -15 47 -29 64 -66 34 -77 9 -177 -52
-209 -32 -17 -120 -21 -120 -5 -1 6 -1 60 -1 120 0 61 0 123 1 139 0 44 41 52
108 21z"/>
<path d="M8473 5043 c15 -4 17 -18 17 -106 1 -182 25 -228 127 -234 46 -3 65
0 91 16 44 28 52 55 52 174 0 117 5 144 29 150 9 3 -6 5 -34 6 -38 0 -46 -2
-32 -10 15 -9 17 -26 17 -127 0 -138 -9 -161 -66 -181 -51 -18 -88 -9 -111 26
-26 40 -32 252 -8 276 15 16 13 17 -42 16 -32 -1 -50 -3 -40 -6z"/>
<path d="M8963 5038 c16 -12 17 -29 15 -163 l-3 -149 -25 -7 c-15 -4 8 -7 55
-7 44 0 71 3 60 5 -29 8 -35 21 -35 91 0 90 22 86 96 -18 l58 -80 50 0 51 1
-31 13 c-18 8 -54 43 -83 82 l-52 68 28 14 c15 8 34 21 41 30 18 23 15 77 -7
103 -18 22 -28 24 -128 27 -92 3 -105 2 -90 -10z m141 -9 c33 -15 50 -57 37
-92 -12 -31 -39 -47 -80 -47 l-31 0 0 69 c0 58 3 70 18 74 28 8 30 7 56 -4z"/>
<path d="M9423 5037 c16 -11 17 -30 15 -162 l-3 -149 -25 -7 c-15 -4 8 -7 55
-7 47 0 70 3 55 7 l-25 7 -3 149 c-2 132 -1 151 15 162 14 11 8 13 -42 13 -50
0 -56 -2 -42 -13z"/>
<path d="M10801 3954 c0 -11 3 -14 6 -6 3 7 2 16 -1 19 -3 4 -6 -2 -5 -13z"/>
<path d="M5265 3605 c-44 -21 -47 -23 -22 -24 27 -1 27 -2 27 -65 l0 -63 -48
5 c-63 6 -104 -15 -135 -71 -46 -80 -42 -158 11 -218 34 -38 94 -49 140 -25
28 15 32 15 32 1 0 -21 20 -19 77 7 44 20 46 22 22 26 -35 4 -40 37 -39 266 1
99 -2 181 -7 183 -4 1 -30 -9 -58 -22z m-15 -187 c17 -19 20 -35 20 -125 0
-101 -1 -104 -25 -115 -75 -34 -142 65 -121 177 14 74 83 109 126 63z"/>
<path d="M6200 3607 c-42 -19 -44 -21 -20 -27 23 -5 25 -11 28 -75 2 -56 1
-68 -9 -57 -7 6 -34 12 -60 12 -140 0 -202 -209 -90 -303 41 -34 96 -36 135
-6 l26 20 0 -20 c0 -25 3 -26 63 -4 51 19 59 30 25 35 -23 3 -23 3 -26 226 -2
168 -5 222 -15 221 -6 0 -32 -10 -57 -22z m-15 -192 c23 -22 25 -31 25 -124 0
-89 -2 -101 -19 -111 -49 -26 -114 8 -126 67 -4 15 -8 37 -10 48 -7 35 17 105
43 125 33 27 58 25 87 -5z"/>
<path d="M6938 3584 c-55 -28 -60 -36 -20 -32 l27 3 3 -195 2 -196 -27 -11
c-23 -9 -13 -11 62 -11 75 0 85 2 63 11 -37 14 -40 34 -36 265 3 217 7 209
-74 166z"/>
<path d="M7258 3593 c-43 -27 -68 -82 -68 -153 0 -57 3 -65 34 -96 28 -28 42
-34 75 -34 23 0 55 7 71 15 l29 15 -11 -33 c-15 -44 -64 -114 -91 -129 -12 -7
-42 -21 -67 -31 l-45 -17 52 4 c63 6 95 22 149 74 109 105 124 274 34 364 -33
34 -43 38 -86 38 -28 0 -61 -8 -76 -17z m110 -25 c30 -33 42 -72 42 -139 0
-58 -1 -60 -35 -76 -73 -35 -125 20 -125 130 0 48 4 62 25 82 30 31 65 32 93
3z"/>
<path d="M7713 3595 c-48 -21 -116 -88 -143 -142 -49 -97 -36 -225 29 -287 39
-37 102 -45 151 -18 93 51 109 211 26 266 -29 18 -97 21 -128 5 -30 -16 -32
-5 -5 48 32 62 72 99 133 123 l49 19 -40 0 c-22 0 -54 -6 -72 -14z m7 -205
c29 -15 53 -92 47 -147 -8 -71 -65 -113 -108 -80 -32 24 -49 75 -49 145 0 62
2 70 23 80 28 14 63 15 87 2z"/>
<path d="M7966 3589 c-36 -28 -61 -81 -76 -157 -28 -142 46 -302 140 -302 41
0 90 32 115 74 68 117 50 308 -37 381 -38 32 -104 34 -142 4z m106 -16 c40
-49 56 -165 39 -285 -12 -84 -24 -111 -55 -126 -60 -27 -101 50 -101 193 0
115 11 177 36 209 24 30 59 34 81 9z"/>
<path d="M5470 3434 c-43 -37 -60 -74 -60 -134 0 -98 47 -160 127 -167 39 -4
53 -1 76 17 33 26 71 96 57 105 -6 3 -10 1 -10 -5 0 -6 -11 -22 -25 -35 -62
-63 -175 0 -175 96 0 18 8 19 104 19 58 0 107 4 111 9 11 19 -27 92 -56 106
-46 24 -112 19 -149 -11z m104 -15 c14 -11 26 -29 26 -40 0 -17 -8 -19 -70
-19 -43 0 -70 4 -70 11 0 16 56 69 73 69 8 0 26 -9 41 -21z"/>
<path d="M5755 3436 c-18 -18 -25 -36 -25 -65 0 -44 18 -63 108 -112 61 -33
71 -91 18 -105 -35 -8 -78 15 -98 54 -25 51 -28 50 -28 -14 l0 -59 74 -3 c67
-3 76 -1 105 23 25 21 31 34 31 65 0 47 -20 72 -87 105 -82 40 -100 67 -67 99
24 25 69 20 93 -10 12 -15 21 -33 21 -40 0 -7 5 -16 10 -19 6 -4 10 14 10 47
l0 54 -70 2 c-63 3 -73 0 -95 -22z"/>
<path d="M6409 3437 c-63 -42 -84 -160 -43 -240 31 -59 113 -84 174 -52 31 16
70 72 70 101 -1 18 -1 18 -15 -1 -30 -43 -49 -55 -85 -55 -57 0 -96 38 -114
113 l-6 27 111 0 112 0 -6 38 c-14 84 -120 122 -198 69z m99 -14 c11 -10 23
-28 27 -40 6 -22 4 -23 -64 -23 -73 0 -80 5 -60 41 19 37 67 48 97 22z"/>
<path d="M2761 3424 c0 -11 3 -14 6 -6 3 7 2 16 -1 19 -3 4 -6 -2 -5 -13z"/>
<path d="M2720 3281 c0 -6 4 -13 10 -16 6 -3 7 1 4 9 -7 18 -14 21 -14 7z"/>
<path d="M2755 3270 c3 -5 8 -10 11 -10 2 0 4 5 4 10 0 6 -5 10 -11 10 -5 0
-7 -4 -4 -10z"/>
<path d="M2790 3265 c-7 -8 -8 -15 -2 -15 5 0 15 7 22 15 7 8 8 15 2 15 -5 0
-15 -7 -22 -15z"/>
</g>
</svg>
